<svg width="0" height="0" class="hidden">
  <symbol version="1.1" xml:space="preserve" xmlns="http://www.w3.org/2000/svg" xmlns:xlink="http://www.w3.org/1999/xlink" viewBox="0 0 36 36" id="cross_icon">
    <g id="Layer_1"></g>
    <g id="icons">
      <path d="M6.2,3.5L3.5,6.2c-0.7,0.7-0.7,1.9,0,2.7l9.2,9.2l-9.2,9.2c-0.7,0.7-0.7,1.9,0,2.7l2.6,2.6   c0.7,0.7,1.9,0.7,2.7,0l9.2-9.2l9.2,9.2c0.7,0.7,1.9,0.7,2.7,0l2.6-2.6c0.7-0.7,0.7-1.9,0-2.7L23.3,18l9.2-9.2   c0.7-0.7,0.7-1.9,0-2.7l-2.6-2.6c-0.7-0.7-1.9-0.7-2.7,0L18,12.7L8.8,3.5C8.1,2.8,6.9,2.8,6.2,3.5z" id="close_1_"></path>
    </g>
  </symbol>
  <symbol xmlns="http://www.w3.org/2000/svg" viewBox="0 0 512 512" id="circle_icon">
    <path d="M256 0C114.6 0 0 114.6 0 256s114.6 256 256 256s256-114.6 256-256S397.4 0 256 0zM352 256c0 52.95-43.05 96-96 96S160 308.1 160 256s43.05-96 96-96S352 203.1 352 256z"></path>
  </symbol>
  <symbol id="211812_refresh_empty_icon" version="1.1" xml:space="preserve" xmlns="http://www.w3.org/2000/svg" xmlns:xlink="http://www.w3.org/1999/xlink" viewBox="0 0 512 512">
    <g>
      <path d="M256,384.1c-70.7,0-128-57.3-128-128.1c0-70.8,57.3-128.1,128-128.1V84l96,64l-96,55.7v-55.8   c-59.6,0-108.1,48.5-108.1,108.1c0,59.6,48.5,108.1,108.1,108.1S364.1,316,364.1,256H384C384,327,326.7,384.1,256,384.1z"></path>
    </g>
  </symbol>
</svg>